<svg width="20" height="20" viewBox="0 0 20 20" fill="none" xmlns="http://www.w3.org/2000/svg">
<path d="M17.962 5.31074C17.9999 5.40208 18.0099 5.50261 17.9907 5.59962C17.9714 5.69663 17.9239 5.78576 17.854 5.85574L15.854 7.85574C15.8075 7.90214 15.7523 7.93892 15.6915 7.96397C15.6308 7.98902 15.5657 8.00186 15.5 8.00174H12.707L11.354 9.35474C11.5065 9.67403 11.5412 10.037 11.452 10.3794C11.3628 10.7218 11.1555 11.0217 10.8665 11.226C10.5776 11.4303 10.2258 11.5259 9.87322 11.4958C9.52064 11.4658 9.19003 11.3121 8.93982 11.0619C8.68961 10.8117 8.53591 10.4811 8.50589 10.1285C8.47587 9.77595 8.57146 9.42411 8.77576 9.1352C8.98006 8.84629 9.27993 8.6389 9.62235 8.5497C9.96477 8.4605 10.3277 8.49523 10.647 8.64774L12 7.29474V4.50174C11.9999 4.43603 12.0127 4.37095 12.0378 4.31021C12.0628 4.24947 12.0996 4.19426 12.146 4.14774L14.146 2.14774C14.2159 2.07763 14.3051 2.02987 14.4022 2.0105C14.4993 1.99113 14.6 2.00104 14.6915 2.03896C14.7829 2.07687 14.8611 2.1411 14.916 2.22349C14.9709 2.30588 15.0002 2.40272 15 2.50174V5.00174H17.5C17.5989 5.00176 17.6957 5.03113 17.7779 5.08613C17.8601 5.14114 17.9242 5.2193 17.962 5.31074ZM16.293 6.00174H14.5C14.3674 6.00174 14.2402 5.94906 14.1464 5.85529C14.0527 5.76152 14 5.63435 14 5.50174V3.70874L13 4.70874V7.00174H15.293L16.293 6.00174ZM17.607 7.51674C17.862 8.29874 18 9.13474 18 10.0017C17.9996 11.6917 17.4641 13.3381 16.4702 14.7049C15.4764 16.0717 14.0752 17.0886 12.4677 17.6099C10.8601 18.1312 9.12883 18.13 7.52201 17.6065C5.91518 17.0831 4.51539 16.0642 3.52338 14.6961C2.53136 13.328 1.99808 11.6808 2.00001 9.99089C2.00193 8.30095 2.53896 6.65503 3.53409 5.28916C4.52922 3.92329 5.93132 2.90763 7.53933 2.38783C9.14734 1.86803 10.8787 1.8708 12.485 2.39574L11.677 3.20374C10.1926 2.83773 8.62917 2.96777 7.22563 3.57399C5.82208 4.1802 4.6556 5.22926 3.90442 6.56086C3.15324 7.89246 2.85866 9.43337 3.06571 10.9482C3.27275 12.4629 3.97002 13.8683 5.05099 14.9495C6.13196 16.0306 7.53717 16.7282 9.05191 16.9355C10.5666 17.1429 12.1076 16.8486 13.4394 16.0977C14.7711 15.3467 15.8204 14.1805 16.4269 12.777C17.0334 11.3736 17.1637 9.81022 16.798 8.32574L17.607 7.51674ZM14.9 9.00174C14.9667 9.32574 15 9.65907 15 10.0017C14.9998 11.0335 14.6804 12.04 14.0856 12.883C13.4908 13.7261 12.6498 14.3646 11.6778 14.7108C10.7059 15.057 9.65062 15.0941 8.65677 14.8169C7.66293 14.5397 6.77916 13.9619 6.12669 13.1626C5.47422 12.3633 5.085 11.3818 5.01239 10.3525C4.93979 9.32333 5.18737 8.29685 5.72117 7.4139C6.25498 6.53094 7.04887 5.83474 7.99396 5.42078C8.93905 5.00683 9.98907 4.89538 11 5.10174V6.12774C10.1505 5.90858 9.25245 5.97481 8.44426 6.31621C7.63607 6.65762 6.96254 7.25527 6.52742 8.01711C6.09229 8.77895 5.91971 9.66271 6.03626 10.5323C6.1528 11.4019 6.55201 12.209 7.17238 12.8294C7.79276 13.4497 8.59989 13.8489 9.46946 13.9655C10.339 14.082 11.2228 13.9094 11.9846 13.4743C12.7465 13.0392 13.3441 12.3657 13.6855 11.5575C14.0269 10.7493 14.0932 9.85127 13.874 9.00174H14.9Z" fill="#B9D6EF"/>
</svg>
