<svg width="16" height="16" viewBox="0 0 16 16" fill="none" xmlns="http://www.w3.org/2000/svg">
<g clip-path="url(#clip0_11983_168975)">
<path d="M8 9C8 9.26522 7.89464 9.51957 7.70711 9.70711C7.51957 9.89464 7.26522 10 7 10C6.73478 10 6.48043 9.89464 6.29289 9.70711C6.10536 9.51957 6 9.26522 6 9C6 8.73478 6.10536 8.48043 6.29289 8.29289C6.48043 8.10536 6.73478 8 7 8C7.26522 8 7.51957 8.10536 7.70711 8.29289C7.89464 8.48043 8 8.73478 8 9ZM11 9C11 10.0609 10.5786 11.0783 9.82843 11.8284C9.07828 12.5786 8.06087 13 7 13C5.93913 13 4.92172 12.5786 4.17157 11.8284C3.42143 11.0783 3 10.0609 3 9C3 7.93913 3.42143 6.92172 4.17157 6.17157C4.92172 5.42143 5.93913 5 7 5C8.06087 5 9.07828 5.42143 9.82843 6.17157C10.5786 6.92172 11 7.93913 11 9ZM10 9C10 8.20435 9.68393 7.44129 9.12132 6.87868C8.55871 6.31607 7.79565 6 7 6C6.20435 6 5.44129 6.31607 4.87868 6.87868C4.31607 7.44129 4 8.20435 4 9C4 9.79565 4.31607 10.5587 4.87868 11.1213C5.44129 11.6839 6.20435 12 7 12C7.79565 12 8.55871 11.6839 9.12132 11.1213C9.68393 10.5587 10 9.79565 10 9ZM14 9C14 10.8565 13.2625 12.637 11.9497 13.9497C10.637 15.2625 8.85652 16 7 16C5.14348 16 3.36301 15.2625 2.05025 13.9497C0.737498 12.637 0 10.8565 0 9C0 7.14348 0.737498 5.36301 2.05025 4.05025C3.36301 2.7375 5.14348 2 7 2C8.85652 2 10.637 2.7375 11.9497 4.05025C13.2625 5.36301 14 7.14348 14 9ZM13 9C13 8.21207 12.8448 7.43185 12.5433 6.7039C12.2417 5.97595 11.7998 5.31451 11.2426 4.75736C10.6855 4.20021 10.0241 3.75825 9.2961 3.45672C8.56815 3.15519 7.78793 3 7 3C6.21207 3 5.43185 3.15519 4.7039 3.45672C3.97595 3.75825 3.31451 4.20021 2.75736 4.75736C2.20021 5.31451 1.75825 5.97595 1.45672 6.7039C1.15519 7.43185 1 8.21207 1 9C1 10.5913 1.63214 12.1174 2.75736 13.2426C3.88258 14.3679 5.4087 15 7 15C8.5913 15 10.1174 14.3679 11.2426 13.2426C12.3679 12.1174 13 10.5913 13 9Z" fill="#D1E2F0"/>
<rect x="10.7461" y="1.375" width="2.74286" height="5.48571" fill="white"/>
<path d="M12.2852 5.8852C12.3617 5.8084 12.4 5.71333 12.4 5.6C12.4 5.48667 12.3616 5.39173 12.2848 5.3152C12.208 5.23867 12.1131 5.20027 12 5.2C11.8869 5.19973 11.792 5.23813 11.7152 5.3152C11.6384 5.39227 11.6 5.4872 11.6 5.6C11.6 5.7128 11.6384 5.80786 11.7152 5.8852C11.792 5.96253 11.8869 6.0008 12 6C12.1131 5.9992 12.2081 5.9612 12.2852 5.8852ZM12.2852 4.2848C12.3617 4.20827 12.4 4.11333 12.4 4V2.4C12.4 2.28667 12.3616 2.19173 12.2848 2.1152C12.208 2.03867 12.1131 2.00027 12 2C11.8869 1.99973 11.792 2.03813 11.7152 2.1152C11.6384 2.19227 11.6 2.2872 11.6 2.4V4C11.6 4.11333 11.6384 4.2084 11.7152 4.2852C11.792 4.362 11.8869 4.40027 12 4.4C12.1131 4.39973 12.2081 4.36133 12.2852 4.2848ZM12 8C11.4467 8 10.9267 7.89493 10.44 7.6848C9.95333 7.47466 9.53 7.18973 9.17 6.83C8.81 6.47027 8.52507 6.04693 8.3152 5.56C8.10533 5.07307 8.00027 4.55307 8 4C7.99973 3.44693 8.1048 2.92693 8.3152 2.44C8.5256 1.95307 8.81053 1.52973 9.17 1.17C9.52947 0.810267 9.9528 0.525333 10.44 0.3152C10.9272 0.105067 11.4472 0 12 0C12.5528 0 13.0728 0.105067 13.56 0.3152C14.0472 0.525333 14.4705 0.810267 14.83 1.17C15.1895 1.52973 15.4745 1.95307 15.6852 2.44C15.8959 2.92693 16.0008 3.44693 16 4C15.9992 4.55307 15.8941 5.07307 15.6848 5.56C15.4755 6.04693 15.1905 6.47027 14.83 6.83C14.4695 7.18973 14.0461 7.4748 13.56 7.6852C13.0739 7.8956 12.5539 8.00053 12 8Z" fill="#C34646"/>
</g>
<defs>
<clipPath id="clip0_11983_168975">
<rect width="16" height="16" fill="white"/>
</clipPath>
</defs>
</svg>
